<svg enable-background="new 0 0 256 256" viewBox="0 0 256 256" xmlns="http://www.w3.org/2000/svg"><path d="m73.579 118.076h-59.579c-3.314 0-6-2.686-6-6v-82.737c0-3.314 2.686-6 6-6h59.579c3.314 0 6 2.686 6 6v82.737c0 3.314-2.686 6-6 6z" fill="#e0ebfc"/><path d="m157.789 118.076h-59.578c-3.314 0-6-2.686-6-6v-82.737c0-3.314 2.686-6 6-6h59.579c3.314 0 6 2.686 6 6v82.737c-.001 3.314-2.687 6-6.001 6z" fill="#4671c6"/><path d="m242 118.076h-59.579c-3.314 0-6-2.686-6-6v-82.737c0-3.314 2.686-6 6-6h59.579c3.314 0 6 2.686 6 6v82.737c0 3.314-2.686 6-6 6z" fill="#e0ebfc"/><path d="m194.505 83.756h35.411c1.566 0 2.525-1.719 1.702-3.051l-17.706-28.666c-.782-1.265-2.622-1.265-3.403 0l-17.706 28.666c-.823 1.333.136 3.051 1.702 3.051z" fill="#6bdddd"/><path d="m73.579 232.661h-59.579c-3.314 0-6-2.686-6-6v-82.737c0-3.314 2.686-6 6-6h59.579c3.314 0 6 2.686 6 6v82.737c0 3.314-2.686 6-6 6z" fill="#e0ebfc"/><path d="m157.789 232.661h-59.578c-3.314 0-6-2.686-6-6v-82.737c0-3.314 2.686-6 6-6h59.579c3.314 0 6 2.686 6 6v82.737c-.001 3.314-2.687 6-6.001 6z" fill="#e0ebfc"/><path d="m110.294 198.341h35.411c1.566 0 2.525-1.719 1.702-3.051l-17.706-28.666c-.782-1.265-2.622-1.265-3.403 0l-17.706 28.666c-.822 1.333.136 3.051 1.702 3.051z" fill="#6bdddd"/><path d="m242 232.661h-59.579c-3.314 0-6-2.686-6-6v-82.737c0-3.314 2.686-6 6-6h59.579c3.314 0 6 2.686 6 6v82.737c0 3.314-2.686 6-6 6z" fill="#4671c6"/><path d="m111.858 60.361c0-1.933.62-3.891 1.861-5.875 4.48-7.161 14.945-8.446 21.578-5.25 7.578 3.653 9.59 12.523 3.525 18.465-2.946 2.883-5.468 4.835-6.867 6.44-2.817 3.222-.834 7.767-5.54 7.767-2.059 0-3.754-1.337-3.754-4.12 0-10.135 11.323-11.723 11.323-17.946 0-6.164-8.482-7.269-11.445-4.105-1.058 1.129-1.953 2.792-2.686 4.99-1.756 5.838-7.995 3.32-7.995-.366zm10.255 28.872c0-6.009 9.187-6.035 9.187 0 0 6.138-9.187 6.064-9.187 0z" fill="#f9a7a7"/><path d="m196.95 172.113c0-12.983 21.522-17.556 28.674-6.684 2.338 3.558 2.301 7.855.793 10.651-2.849 5.291-9.65 8.316-10.773 12.315-.657 2.322-.584 5.265-4.136 5.265-2.059 0-3.754-1.337-3.754-4.12 0-7.026 4.687-9.112 9.264-13.688 2.908-2.91 2.509-6.282.244-8.377-1.211-1.119-2.773-1.679-4.686-1.679-9.169 0-5.581 10.133-11.567 10.133-2.399-.001-4.059-2.029-4.059-3.816zm10.255 28.873c0-4.201 5.11-5.997 7.874-3.235 1.877 1.877 1.67 5.054-.062 6.592-2.834 2.521-7.812 1.021-7.812-3.357z" fill="#f9a7a7"/><circle cx="44.211" cy="185.293" fill="#f9a7a7" r="19.821"/><path d="m65.013 82.59v-19.402c0-1.429-.762-2.75-2-3.464l-16.803-9.701c-1.238-.715-2.762-.715-4 0l-16.803 9.701c-1.238.715-2 2.035-2 3.464v19.402c0 1.429.762 2.75 2 3.464l16.803 9.701c1.238.715 2.762.715 4 0l16.803-9.701c1.238-.715 2-2.035 2-3.464z" fill="#a4c9ff"/><g fill="#3762cc"><path d="m73.579 120.076h-59.579c-4.411 0-8-3.589-8-8v-82.737c0-4.411 3.589-8 8-8h59.579c4.411 0 8 3.589 8 8v82.737c0 4.411-3.589 8-8 8zm-59.579-94.737c-2.206 0-4 1.794-4 4v82.737c0 2.206 1.794 4 4 4h59.579c2.206 0 4-1.794 4-4v-82.737c0-2.206-1.794-4-4-4z"/><path d="m157.789 120.076h-59.578c-4.411 0-8-3.589-8-8v-82.737c0-4.411 3.589-8 8-8h59.578c4.411 0 8 3.589 8 8v82.737c0 4.411-3.589 8-8 8zm-59.578-94.737c-2.206 0-4 1.794-4 4v82.737c0 2.206 1.794 4 4 4h59.578c2.206 0 4-1.794 4-4v-82.737c0-2.206-1.794-4-4-4z"/><path d="m242 120.076h-59.579c-4.411 0-8-3.589-8-8v-82.737c0-4.411 3.589-8 8-8h59.579c4.411 0 8 3.589 8 8v82.737c0 4.411-3.589 8-8 8zm-59.579-94.737c-2.206 0-4 1.794-4 4v82.737c0 2.206 1.794 4 4 4h59.579c2.206 0 4-1.794 4-4v-82.737c0-2.206-1.794-4-4-4z"/><path d="m73.579 234.661h-59.579c-4.411 0-8-3.589-8-8v-82.737c0-4.411 3.589-8 8-8h59.579c4.411 0 8 3.589 8 8v82.737c0 4.411-3.589 8-8 8zm-59.579-94.737c-2.206 0-4 1.794-4 4v82.737c0 2.206 1.794 4 4 4h59.579c2.206 0 4-1.794 4-4v-82.737c0-2.206-1.794-4-4-4z"/><path d="m157.789 234.661h-59.578c-4.411 0-8-3.589-8-8v-82.737c0-4.411 3.589-8 8-8h59.578c4.411 0 8 3.589 8 8v82.737c0 4.411-3.589 8-8 8zm-59.578-94.737c-2.206 0-4 1.794-4 4v82.737c0 2.206 1.794 4 4 4h59.578c2.206 0 4-1.794 4-4v-82.737c0-2.206-1.794-4-4-4z"/><path d="m242 234.661h-59.579c-4.411 0-8-3.589-8-8v-82.737c0-4.411 3.589-8 8-8h59.579c4.411 0 8 3.589 8 8v82.737c0 4.411-3.589 8-8 8zm-59.579-94.737c-2.206 0-4 1.794-4 4v82.737c0 2.206 1.794 4 4 4h59.579c2.206 0 4-1.794 4-4v-82.737c0-2.206-1.794-4-4-4z"/></g></svg>